<?xml version="1.0" encoding="UTF-8" standalone="no"?>
<!-- Created with Inkscape (http://www.inkscape.org/) -->

<svg
   width="1000"
   height="1000"
   viewBox="0 0 264.58333 264.58333"
   version="1.1"
   id="svg1"
   xml:space="preserve"
   sodipodi:docname="favicon.svg"
   inkscape:version="1.4 (e7c3feb1, 2024-10-09)"
   xmlns:inkscape="http://www.inkscape.org/namespaces/inkscape"
   xmlns:sodipodi="http://sodipodi.sourceforge.net/DTD/sodipodi-0.dtd"
   xmlns="http://www.w3.org/2000/svg"
   xmlns:svg="http://www.w3.org/2000/svg"><sodipodi:namedview
     id="namedview1"
     pagecolor="#ffffff"
     bordercolor="#111111"
     borderopacity="1"
     inkscape:showpageshadow="0"
     inkscape:pageopacity="0"
     inkscape:pagecheckerboard="1"
     inkscape:deskcolor="#d1d1d1"
     inkscape:document-units="mm"
     showgrid="true"
     inkscape:zoom="0.45507949"
     inkscape:cx="317.52695"
     inkscape:cy="603.19132"
     inkscape:window-width="1728"
     inkscape:window-height="990"
     inkscape:window-x="0"
     inkscape:window-y="38"
     inkscape:window-maximized="1"
     inkscape:current-layer="layer1"
     showguides="true"><inkscape:grid
       id="grid1"
       units="px"
       originx="0"
       originy="0"
       spacingx="52.916664"
       spacingy="52.916664"
       empcolor="#0099e5"
       empopacity="0.30196078"
       color="#0099e5"
       opacity="0.14901961"
       empspacing="5"
       enabled="true"
       visible="true"
       dotted="false" /></sodipodi:namedview><defs
     id="defs1"><inkscape:path-effect
       effect="spiro"
       id="path-effect5"
       is_visible="true"
       lpeversion="1" /><inkscape:path-effect
       effect="spiro"
       id="path-effect4"
       is_visible="true"
       lpeversion="1" /></defs><g
     inkscape:label="Layer 1"
     inkscape:groupmode="layer"
     id="layer1"
     transform="matrix(0.95125497,0,0,0.95131622,-22.925027,26.065863)"><rect
       style="fill:#000000;fill-opacity:1;stroke:#000000;stroke-width:47.9099;stroke-dasharray:none;stroke-opacity:1"
       id="rect1-5"
       width="230.21758"
       height="230.21758"
       x="48.054722"
       y="-3.4448383"
       rx="38.001343"
       ry="38.001343"
       inkscape:label="frame" /><path
       id="rect1"
       style="fill:#ffffff;fill-opacity:1;stroke-width:1.47621"
       inkscape:label="blurp"
       d="m 105.75142,5.4976362 c -2.82112,0.4509736 -6.084689,4.4011408 -6.283089,7.7573908 -0.28013,4.737365 -0.49626,9.478526 -0.69126,14.220324 -0.25576,6.221945 -0.42558,12.447999 -0.70998,18.668509 -0.32266,7.057318 -2.431526,26.343679 -3.464698,33.445205 -1.085862,7.463506 -2.2079,14.981882 -4.169981,22.244665 -3.296605,12.20265 -12.652383,15.94566 -24.319362,9.89109 -4.927403,-2.55707 -9.575031,-5.48099 -14.121981,-8.53763 v 83.1077 c 0,20.44544 16.459769,36.9052 36.90522,36.9052 h 76.297231 c -0.21363,-0.27029 -0.43145,-0.53713 -0.64629,-0.80644 -0.46435,-0.53708 -0.92792,-1.07402 -1.4106,-1.82555 -0.0181,-0.21445 0.03,-0.23791 0.03,-0.23791 -0.46063,-0.53422 -0.9208,-1.0686 -1.39937,-1.81618 -0.0181,-0.21326 0.0308,-0.23696 0.0308,-0.23696 -1.33901,-1.55289 -5.64966,-7.0478 -5.65366,-11.07035 0.39682,-2.9159 0.12011,-5.59156 1.06591,-7.72556 1.85154,-4.1778 5.57917,-6.46715 9.89484,-7.89227 10.95648,-3.61799 22.37473,-4.15423 33.7084,-4.64395 15.4193,-0.66624 30.87187,-0.53582 46.30927,-0.80833 6.08765,-0.1075 9.36045,-3.94832 7.76115,-8.91136 -1.87409,-2.66529 -3.57691,-5.55339 -7.17667,-6.03862 -10.03351,-1.07484 -20.09118,-1.92751 -30.1435,-2.82309 -5.59314,-0.49832 -11.22911,-0.67471 -16.7774,-1.47242 -5.57672,-0.80178 -11.06371,-2.21751 -16.5985,-3.32233 -7.0819,-1.41368 -14.21556,-2.85796 -19.8899,-7.66934 -1.59316,-1.35086 -3.01731,-3.84043 -3.09379,-5.86159 -0.21218,-5.60546 2.24232,-10.62166 5.54221,-14.97247 3.79147,-4.99892 7.94005,-9.75524 12.2243,-14.34584 9.28054,-9.94423 18.72888,-19.73226 28.14654,-29.547766 3.02117,-3.14878 6.36796,-6.00693 9.18954,-9.3188 2.84774,-3.342546 2.19726,-6.57482 -1.28136,-10.387524 -2.70039,-2.959801 -5.2318,-3.08665 -9.15768,-0.229481 -6.48073,4.716546 -12.80811,9.643764 -19.25766,14.40391 -13.78167,10.171684 -27.50589,20.425021 -41.45829,30.357981 -4.42825,3.15255 -9.80156,4.72203 -15.2825,3.61362 -7.15972,-2.58546 -8.60778,-7.20631 -9.17361,-13.96275 -0.94382,-9.83007 -1.90593,-19.659768 -2.74535,-29.499057 -0.76497,-8.967104 -1.52189,-17.938413 -2.03162,-26.92233 -0.60863,-10.726753 -0.89644,-21.4714 -1.45744,-32.201324 -0.1061,-2.028568 -0.63393,-4.100046 -1.33378,-6.01802 -1.14638,-3.1417953 -5.04064,-5.8836988 -7.37618,-5.5103528 z M 99.399031,145.64584 c 9.297949,-0.24344 17.320929,2.54316 23.792009,8.73808 4.97747,4.76514 8.09499,10.93479 9.18392,18.06998 1.67235,10.95867 -1.94106,20.02449 -9.54173,27.51337 -9.4108,9.27238 -23.498959,9.5756 -34.370626,3.55274 -4.787046,-2.65205 -7.032483,-3.16353 -10.936403,-7.33873 -1.123659,-1.16428 -3.336425,-5.1824 -4.031365,-6.166 l -2.32946,-5.59184 c -0.571199,-6.47041 -0.942684,-12.46175 0.775539,-18.6301 3.294524,-11.82745 16.306638,-19.8555 27.458116,-20.1475 z" /></g></svg>
